<svg xmlns="http://www.w3.org/2000/svg" xmlns:xlink="http://www.w3.org/1999/xlink" width="1938.001" height="756.071" viewBox="0 0 1938.001 756.071"><defs><linearGradient id="a" x1="0.454" y1="0.957" x2="0.735" y2="0.86" gradientUnits="objectBoundingBox"><stop offset="0" stop-color="#00c4df"/><stop offset="1" stop-color="#0087fc"/></linearGradient><filter id="b" x="0" y="0" width="1938.001" height="756.071" filterUnits="userSpaceOnUse"><feOffset dy="3" input="SourceAlpha"/><feGaussianBlur stdDeviation="3" result="c"/><feFlood flood-opacity="0.161"/><feComposite operator="in" in2="c"/><feComposite in="SourceGraphic"/></filter><linearGradient id="d" x1="0.296" y1="0.806" x2="0.898" y2="0.78" gradientUnits="objectBoundingBox"><stop offset="0" stop-color="#09e1eb"/><stop offset="1" stop-color="#0c8dff"/></linearGradient><filter id="e" x="0.001" y="0.001" width="1937.999" height="730.13" filterUnits="userSpaceOnUse"><feOffset dy="3" input="SourceAlpha"/><feGaussianBlur stdDeviation="3" result="f"/><feFlood flood-opacity="0.161"/><feComposite operator="in" in2="f"/><feComposite in="SourceGraphic"/></filter><linearGradient id="g" x1="0.287" y1="0.94" x2="0.919" y2="0.707" gradientUnits="objectBoundingBox"><stop offset="0" stop-color="#00ffc4"/><stop offset="1" stop-color="#0092f3"/></linearGradient><filter id="h" x="0" y="0.001" width="1938.001" height="709.13" filterUnits="userSpaceOnUse"><feOffset dy="3" input="SourceAlpha"/><feGaussianBlur stdDeviation="3" result="i"/><feFlood flood-opacity="0.161"/><feComposite operator="in" in2="i"/><feComposite in="SourceGraphic"/></filter><filter id="j" x="0" y="0" width="1938" height="683.307" filterUnits="userSpaceOnUse"><feOffset dy="3" input="SourceAlpha"/><feGaussianBlur stdDeviation="3" result="k"/><feFlood flood-opacity="0.161"/><feComposite operator="in" in2="k"/><feComposite in="SourceGraphic"/></filter></defs><g transform="translate(9 6.001)"><circle cx="2.5" cy="2.5" r="2.5" transform="translate(15.33 43.01)" opacity="0.04"/><circle cx="2.5" cy="2.5" r="2.5" transform="translate(70.33 43.01)" opacity="0.04"/><circle cx="2.5" cy="2.5" r="2.5" transform="translate(125.33 43.01)" opacity="0.04"/><circle cx="2.5" cy="2.5" r="2.5" transform="translate(15.33 98.01)" opacity="0.04"/><circle cx="2.5" cy="2.5" r="2.5" transform="translate(70.33 98.01)" opacity="0.04"/><circle cx="2.5" cy="2.5" r="2.5" transform="translate(125.33 98.01)" opacity="0.04"/><circle cx="2.5" cy="2.5" r="2.5" transform="translate(15.33 153.01)" opacity="0.04"/><circle cx="2.5" cy="2.5" r="2.5" transform="translate(70.33 153.01)" opacity="0.04"/><circle cx="2.5" cy="2.5" r="2.5" transform="translate(125.33 153.01)" opacity="0.04"/><circle cx="2.5" cy="2.5" r="2.5" transform="translate(15.33 208.01)" opacity="0.04"/><circle cx="2.5" cy="2.5" r="2.5" transform="translate(70.33 208.01)" opacity="0.04"/><circle cx="2.5" cy="2.5" r="2.5" transform="translate(125.33 208.01)" opacity="0.04"/><circle cx="2.5" cy="2.5" r="2.5" transform="translate(15.33 263.01)" opacity="0.04"/><circle cx="2.5" cy="2.5" r="2.5" transform="translate(70.33 263.01)" opacity="0.04"/><circle cx="2.5" cy="2.5" r="2.5" transform="translate(125.33 263.01)" opacity="0.04"/><circle cx="2.5" cy="2.5" r="2.5" transform="translate(15.33 318.01)" opacity="0.04"/><circle cx="2.5" cy="2.5" r="2.5" transform="translate(70.33 318.01)" opacity="0.04"/><circle cx="2.5" cy="2.5" r="2.5" transform="translate(125.33 318.01)" opacity="0.04"/><circle cx="2.5" cy="2.5" r="2.5" transform="translate(15.33 373.01)" opacity="0.04"/><circle cx="2.5" cy="2.5" r="2.5" transform="translate(70.33 373.01)" opacity="0.04"/><circle cx="2.5" cy="2.5" r="2.5" transform="translate(125.33 373.01)" opacity="0.04"/><circle cx="2.5" cy="2.5" r="2.5" transform="translate(15.33 428.01)" opacity="0.04"/><circle cx="2.5" cy="2.5" r="2.5" transform="translate(70.33 428.01)" opacity="0.04"/><circle cx="2.5" cy="2.5" r="2.5" transform="translate(125.33 428.01)" opacity="0.04"/><circle cx="2.5" cy="2.5" r="2.5" transform="translate(15.33 483.01)" opacity="0.04"/><circle cx="2.5" cy="2.5" r="2.5" transform="translate(70.33 483.01)" opacity="0.04"/><circle cx="2.5" cy="2.5" r="2.5" transform="translate(125.33 483.01)" opacity="0.04"/><circle cx="2.5" cy="2.5" r="2.5" transform="translate(15.33 538.01)" opacity="0.04"/><circle cx="2.5" cy="2.5" r="2.5" transform="translate(70.33 538.01)" opacity="0.04"/><circle cx="2.5" cy="2.5" r="2.5" transform="translate(125.33 538.01)" opacity="0.04"/><circle cx="2.5" cy="2.5" r="2.5" transform="translate(125.33 593.01)" opacity="0.04"/><g transform="matrix(1, 0, 0, 1, -9, -6)" filter="url(#b)"><path d="M-5287.33-2775.925V-3472.19h1920v537.246c-271.583,106.239-678.464,181.8-1135.175,197.746-59.224,2.068-117.8,3.078-175.3,3.079C-4898.686-2734.114-5105.458-2749-5287.33-2775.925Z" transform="translate(5296.33 3478.19)" fill="url(#a)"/></g><g transform="matrix(1, 0, 0, 1, -9, -6)" filter="url(#e)"><path d="M-5244.33-2769.846v-676.4h1920V-2952.5C-3594.9-2837.069-4020.981-2754.014-4502.5-2737.2c-59.224,2.068-117.8,3.078-175.3,3.079C-4881.465-2734.115-5073.12-2746.769-5244.33-2769.846Z" transform="translate(5253.33 3452.25)" fill="url(#d)"/></g><g transform="matrix(1, 0, 0, 1, -9, -6)" filter="url(#h)"><path d="M-5163.332-2759.88v-665.369h1920v434.825C-3504.816-2855.51-3969.742-2755.8-4502.5-2737.2c-59.224,2.068-117.8,3.078-175.3,3.079C-4849.918-2734.115-5013.459-2743.154-5163.332-2759.88Z" transform="translate(5172.33 3431.25)" fill="url(#g)"/></g><g transform="matrix(1, 0, 0, 1, -9, -6)" filter="url(#j)"><path d="M-5079.791-2749.606V-3397.24h1920v365.605c-241.455,156.591-748.17,276.023-1337.662,296.609q-89.284,3.118-176.077,3.093C-4815.734-2731.933-4952.111-2738.074-5079.791-2749.606Z" transform="translate(5088.79 3403.24)" fill="#fff"/></g><circle cx="2.5" cy="2.5" r="2.5" transform="translate(180.33 48.01)" opacity="0.04"/><circle cx="2.5" cy="2.5" r="2.5" transform="translate(235.33 48.01)" opacity="0.04"/><circle cx="2.5" cy="2.5" r="2.5" transform="translate(290.33 48.01)" opacity="0.04"/><circle cx="2.5" cy="2.5" r="2.5" transform="translate(345.33 48.01)" opacity="0.04"/><circle cx="2.5" cy="2.5" r="2.5" transform="translate(400.33 48.01)" opacity="0.04"/><circle cx="2.5" cy="2.5" r="2.5" transform="translate(455.33 48.01)" opacity="0.04"/><circle cx="2.5" cy="2.5" r="2.5" transform="translate(510.33 48.01)" opacity="0.04"/><circle cx="2.5" cy="2.5" r="2.5" transform="translate(565.33 48.01)" opacity="0.04"/><circle cx="2.5" cy="2.5" r="2.5" transform="translate(620.33 48.01)" opacity="0.04"/><circle cx="2.5" cy="2.5" r="2.5" transform="translate(675.33 48.01)" opacity="0.04"/><circle cx="2.5" cy="2.5" r="2.5" transform="translate(730.33 48.01)" opacity="0.04"/><circle cx="2.5" cy="2.5" r="2.5" transform="translate(785.33 48.01)" opacity="0.04"/><circle cx="2.5" cy="2.5" r="2.5" transform="translate(840.33 48.01)" opacity="0.04"/><circle cx="2.5" cy="2.5" r="2.5" transform="translate(895.33 48.01)" opacity="0.04"/><circle cx="2.5" cy="2.5" r="2.5" transform="translate(950.33 48.01)" opacity="0.04"/><circle cx="2.5" cy="2.5" r="2.5" transform="translate(1005.33 48.01)" opacity="0.04"/><circle cx="2.5" cy="2.5" r="2.5" transform="translate(1060.33 48.01)" opacity="0.04"/><circle cx="2.5" cy="2.5" r="2.5" transform="translate(1115.33 48.01)" opacity="0.04"/><circle cx="2.5" cy="2.5" r="2.5" transform="translate(1170.33 48.01)" opacity="0.04"/><circle cx="2.5" cy="2.5" r="2.5" transform="translate(1225.33 48.01)" opacity="0.04"/><circle cx="2.5" cy="2.5" r="2.5" transform="translate(1280.33 48.01)" opacity="0.04"/><circle cx="2.5" cy="2.5" r="2.5" transform="translate(1335.33 48.01)" opacity="0.04"/><circle cx="2.5" cy="2.5" r="2.5" transform="translate(1390.33 48.01)" opacity="0.04"/><circle cx="2.5" cy="2.5" r="2.5" transform="translate(180.33 103.01)" opacity="0.04"/><circle cx="2.5" cy="2.5" r="2.5" transform="translate(235.33 103.01)" opacity="0.04"/><circle cx="2.5" cy="2.5" r="2.5" transform="translate(290.33 103.01)" opacity="0.04"/><circle cx="2.5" cy="2.5" r="2.5" transform="translate(345.33 103.01)" opacity="0.04"/><circle cx="2.5" cy="2.5" r="2.5" transform="translate(400.33 103.01)" opacity="0.04"/><circle cx="2.5" cy="2.5" r="2.5" transform="translate(455.33 103.01)" opacity="0.04"/><circle cx="2.5" cy="2.5" r="2.5" transform="translate(510.33 103.01)" opacity="0.04"/><circle cx="2.5" cy="2.5" r="2.5" transform="translate(565.33 103.01)" opacity="0.04"/><circle cx="2.5" cy="2.5" r="2.5" transform="translate(620.33 103.01)" opacity="0.04"/><circle cx="2.5" cy="2.5" r="2.5" transform="translate(675.33 103.01)" opacity="0.04"/><circle cx="2.5" cy="2.5" r="2.5" transform="translate(730.33 103.01)" opacity="0.04"/><circle cx="2.5" cy="2.5" r="2.5" transform="translate(785.33 103.01)" opacity="0.04"/><circle cx="2.5" cy="2.5" r="2.5" transform="translate(840.33 103.01)" opacity="0.04"/><circle cx="2.5" cy="2.5" r="2.5" transform="translate(895.33 103.01)" opacity="0.04"/><circle cx="2.5" cy="2.5" r="2.5" transform="translate(950.33 103.01)" opacity="0.04"/><circle cx="2.5" cy="2.5" r="2.5" transform="translate(1005.33 103.01)" opacity="0.04"/><circle cx="2.5" cy="2.5" r="2.5" transform="translate(1060.33 103.01)" opacity="0.04"/><circle cx="2.5" cy="2.5" r="2.5" transform="translate(1115.33 103.01)" opacity="0.04"/><circle cx="2.5" cy="2.5" r="2.5" transform="translate(1170.33 103.01)" opacity="0.04"/><circle cx="2.5" cy="2.5" r="2.5" transform="translate(1225.33 103.01)" opacity="0.04"/><circle cx="2.5" cy="2.5" r="2.5" transform="translate(1280.33 103.01)" opacity="0.04"/><circle cx="2.5" cy="2.5" r="2.5" transform="translate(1335.33 103.01)" opacity="0.04"/><circle cx="2.5" cy="2.5" r="2.5" transform="translate(1390.33 103.01)" opacity="0.04"/><circle cx="2.5" cy="2.5" r="2.5" transform="translate(180.33 158.01)" opacity="0.04"/><circle cx="2.5" cy="2.5" r="2.5" transform="translate(235.33 158.01)" opacity="0.04"/><circle cx="2.5" cy="2.5" r="2.5" transform="translate(290.33 158.01)" opacity="0.04"/><circle cx="2.5" cy="2.5" r="2.5" transform="translate(345.33 158.01)" opacity="0.04"/><circle cx="2.5" cy="2.5" r="2.5" transform="translate(400.33 158.01)" opacity="0.04"/><circle cx="2.5" cy="2.5" r="2.5" transform="translate(455.33 158.01)" opacity="0.04"/><circle cx="2.5" cy="2.5" r="2.5" transform="translate(510.33 158.01)" opacity="0.04"/><circle cx="2.5" cy="2.5" r="2.5" transform="translate(565.33 158.01)" opacity="0.04"/><circle cx="2.5" cy="2.5" r="2.5" transform="translate(620.33 158.01)" opacity="0.04"/><circle cx="2.5" cy="2.5" r="2.5" transform="translate(675.33 158.01)" opacity="0.04"/><circle cx="2.5" cy="2.5" r="2.5" transform="translate(730.33 158.01)" opacity="0.04"/><circle cx="2.5" cy="2.5" r="2.5" transform="translate(785.33 158.01)" opacity="0.04"/><circle cx="2.5" cy="2.5" r="2.5" transform="translate(840.33 158.01)" opacity="0.04"/><circle cx="2.5" cy="2.5" r="2.5" transform="translate(895.33 158.01)" opacity="0.04"/><circle cx="2.5" cy="2.5" r="2.5" transform="translate(950.33 158.01)" opacity="0.04"/><circle cx="2.5" cy="2.5" r="2.5" transform="translate(1005.33 158.01)" opacity="0.04"/><circle cx="2.5" cy="2.5" r="2.5" transform="translate(1060.33 158.01)" opacity="0.04"/><circle cx="2.5" cy="2.5" r="2.5" transform="translate(1115.33 158.01)" opacity="0.04"/><circle cx="2.5" cy="2.5" r="2.5" transform="translate(1170.33 158.01)" opacity="0.04"/><circle cx="2.5" cy="2.5" r="2.5" transform="translate(1225.33 158.01)" opacity="0.04"/><circle cx="2.5" cy="2.5" r="2.5" transform="translate(1280.33 158.01)" opacity="0.04"/><circle cx="2.5" cy="2.5" r="2.5" transform="translate(1335.33 158.01)" opacity="0.04"/><circle cx="2.5" cy="2.5" r="2.5" transform="translate(1390.33 158.01)" opacity="0.04"/><circle cx="2.5" cy="2.5" r="2.5" transform="translate(180.33 213.01)" opacity="0.04"/><circle cx="2.5" cy="2.5" r="2.5" transform="translate(235.33 213.01)" opacity="0.04"/><circle cx="2.5" cy="2.5" r="2.5" transform="translate(290.33 213.01)" opacity="0.04"/><circle cx="2.5" cy="2.5" r="2.5" transform="translate(345.33 213.01)" opacity="0.04"/><circle cx="2.5" cy="2.5" r="2.5" transform="translate(400.33 213.01)" opacity="0.04"/><circle cx="2.5" cy="2.5" r="2.5" transform="translate(455.33 213.01)" opacity="0.04"/><circle cx="2.5" cy="2.5" r="2.5" transform="translate(510.33 213.01)" opacity="0.04"/><circle cx="2.5" cy="2.5" r="2.5" transform="translate(565.33 213.01)" opacity="0.04"/><circle cx="2.5" cy="2.5" r="2.5" transform="translate(620.33 213.01)" opacity="0.04"/><circle cx="2.5" cy="2.5" r="2.5" transform="translate(675.33 213.01)" opacity="0.04"/><circle cx="2.5" cy="2.5" r="2.5" transform="translate(730.33 213.01)" opacity="0.04"/><circle cx="2.5" cy="2.5" r="2.5" transform="translate(785.33 213.01)" opacity="0.04"/><circle cx="2.5" cy="2.5" r="2.5" transform="translate(840.33 213.01)" opacity="0.04"/><circle cx="2.5" cy="2.5" r="2.5" transform="translate(895.33 213.01)" opacity="0.04"/><circle cx="2.5" cy="2.5" r="2.5" transform="translate(950.33 213.01)" opacity="0.04"/><circle cx="2.5" cy="2.5" r="2.5" transform="translate(1005.33 213.01)" opacity="0.04"/><circle cx="2.5" cy="2.5" r="2.5" transform="translate(1060.33 213.01)" opacity="0.04"/><circle cx="2.5" cy="2.5" r="2.5" transform="translate(1115.33 213.01)" opacity="0.04"/><circle cx="2.5" cy="2.5" r="2.5" transform="translate(1170.33 213.01)" opacity="0.04"/><circle cx="2.5" cy="2.5" r="2.5" transform="translate(1225.33 213.01)" opacity="0.04"/><circle cx="2.5" cy="2.5" r="2.5" transform="translate(1280.33 213.01)" opacity="0.04"/><circle cx="2.5" cy="2.5" r="2.5" transform="translate(1335.33 213.01)" opacity="0.04"/><circle cx="2.5" cy="2.5" r="2.5" transform="translate(1390.33 213.01)" opacity="0.04"/><circle cx="2.5" cy="2.5" r="2.5" transform="translate(180.33 268.01)" opacity="0.04"/><circle cx="2.5" cy="2.5" r="2.5" transform="translate(235.33 268.01)" opacity="0.04"/><circle cx="2.5" cy="2.5" r="2.5" transform="translate(290.33 268.01)" opacity="0.04"/><circle cx="2.5" cy="2.5" r="2.5" transform="translate(345.33 268.01)" opacity="0.04"/><circle cx="2.5" cy="2.5" r="2.5" transform="translate(400.33 268.01)" opacity="0.04"/><circle cx="2.5" cy="2.5" r="2.5" transform="translate(455.33 268.01)" opacity="0.04"/><circle cx="2.5" cy="2.5" r="2.5" transform="translate(510.33 268.01)" opacity="0.04"/><circle cx="2.5" cy="2.5" r="2.5" transform="translate(565.33 268.01)" opacity="0.04"/><circle cx="2.5" cy="2.5" r="2.5" transform="translate(620.33 268.01)" opacity="0.04"/><circle cx="2.5" cy="2.5" r="2.5" transform="translate(675.33 268.01)" opacity="0.04"/><circle cx="2.5" cy="2.5" r="2.5" transform="translate(730.33 268.01)" opacity="0.04"/><circle cx="2.5" cy="2.5" r="2.5" transform="translate(785.33 268.01)" opacity="0.04"/><circle cx="2.5" cy="2.5" r="2.5" transform="translate(840.33 268.01)" opacity="0.04"/><circle cx="2.5" cy="2.5" r="2.5" transform="translate(895.33 268.01)" opacity="0.04"/><circle cx="2.5" cy="2.5" r="2.5" transform="translate(950.33 268.01)" opacity="0.04"/><circle cx="2.5" cy="2.5" r="2.5" transform="translate(1005.33 268.01)" opacity="0.04"/><circle cx="2.5" cy="2.5" r="2.5" transform="translate(1060.33 268.01)" opacity="0.04"/><circle cx="2.5" cy="2.5" r="2.5" transform="translate(1115.33 268.01)" opacity="0.04"/><circle cx="2.5" cy="2.5" r="2.5" transform="translate(1170.33 268.01)" opacity="0.04"/><circle cx="2.5" cy="2.5" r="2.5" transform="translate(1225.33 268.01)" opacity="0.04"/><circle cx="2.5" cy="2.5" r="2.5" transform="translate(1280.33 268.01)" opacity="0.04"/><circle cx="2.5" cy="2.5" r="2.5" transform="translate(1335.33 268.01)" opacity="0.04"/><circle cx="2.5" cy="2.5" r="2.5" transform="translate(1390.33 268.01)" opacity="0.04"/><circle cx="2.5" cy="2.5" r="2.5" transform="translate(180.33 323.01)" opacity="0.04"/><circle cx="2.5" cy="2.5" r="2.5" transform="translate(235.33 323.01)" opacity="0.04"/><circle cx="2.5" cy="2.5" r="2.5" transform="translate(290.33 323.01)" opacity="0.04"/><circle cx="2.5" cy="2.5" r="2.5" transform="translate(345.33 323.01)" opacity="0.04"/><circle cx="2.5" cy="2.5" r="2.5" transform="translate(400.33 323.01)" opacity="0.04"/><circle cx="2.5" cy="2.5" r="2.5" transform="translate(455.33 323.01)" opacity="0.04"/><circle cx="2.5" cy="2.5" r="2.5" transform="translate(510.33 323.01)" opacity="0.04"/><circle cx="2.5" cy="2.5" r="2.5" transform="translate(565.33 323.01)" opacity="0.04"/><circle cx="2.5" cy="2.5" r="2.5" transform="translate(620.33 323.01)" opacity="0.04"/><circle cx="2.5" cy="2.5" r="2.5" transform="translate(675.33 323.01)" opacity="0.04"/><circle cx="2.5" cy="2.5" r="2.5" transform="translate(730.33 323.01)" opacity="0.04"/><circle cx="2.5" cy="2.5" r="2.5" transform="translate(785.33 323.01)" opacity="0.04"/><circle cx="2.5" cy="2.5" r="2.5" transform="translate(840.33 323.01)" opacity="0.04"/><circle cx="2.5" cy="2.5" r="2.5" transform="translate(895.33 323.01)" opacity="0.04"/><circle cx="2.5" cy="2.5" r="2.5" transform="translate(950.33 323.01)" opacity="0.04"/><circle cx="2.5" cy="2.5" r="2.5" transform="translate(1005.33 323.01)" opacity="0.04"/><circle cx="2.5" cy="2.5" r="2.5" transform="translate(1060.33 323.01)" opacity="0.04"/><circle cx="2.5" cy="2.5" r="2.5" transform="translate(1115.33 323.01)" opacity="0.04"/><circle cx="2.5" cy="2.5" r="2.5" transform="translate(1170.33 323.01)" opacity="0.04"/><circle cx="2.5" cy="2.5" r="2.5" transform="translate(1225.33 323.01)" opacity="0.04"/><circle cx="2.5" cy="2.5" r="2.5" transform="translate(1280.33 323.01)" opacity="0.04"/><circle cx="2.5" cy="2.5" r="2.5" transform="translate(1335.33 323.01)" opacity="0.04"/><circle cx="2.5" cy="2.5" r="2.5" transform="translate(1390.33 323.01)" opacity="0.04"/><circle cx="2.5" cy="2.5" r="2.5" transform="translate(180.33 378.01)" opacity="0.04"/><circle cx="2.5" cy="2.5" r="2.5" transform="translate(235.33 378.01)" opacity="0.04"/><circle cx="2.5" cy="2.5" r="2.5" transform="translate(290.33 378.01)" opacity="0.04"/><circle cx="2.5" cy="2.5" r="2.5" transform="translate(345.33 378.01)" opacity="0.04"/><circle cx="2.5" cy="2.5" r="2.5" transform="translate(400.33 378.01)" opacity="0.04"/><circle cx="2.5" cy="2.5" r="2.5" transform="translate(455.33 378.01)" opacity="0.04"/><circle cx="2.5" cy="2.5" r="2.5" transform="translate(510.33 378.01)" opacity="0.04"/><circle cx="2.5" cy="2.5" r="2.5" transform="translate(565.33 378.01)" opacity="0.04"/><circle cx="2.5" cy="2.5" r="2.5" transform="translate(620.33 378.01)" opacity="0.04"/><circle cx="2.5" cy="2.5" r="2.5" transform="translate(675.33 378.01)" opacity="0.04"/><circle cx="2.5" cy="2.5" r="2.5" transform="translate(730.33 378.01)" opacity="0.04"/><circle cx="2.5" cy="2.5" r="2.5" transform="translate(785.33 378.01)" opacity="0.04"/><circle cx="2.5" cy="2.5" r="2.5" transform="translate(840.33 378.01)" opacity="0.04"/><circle cx="2.5" cy="2.5" r="2.5" transform="translate(895.33 378.01)" opacity="0.04"/><circle cx="2.5" cy="2.5" r="2.5" transform="translate(950.33 378.01)" opacity="0.04"/><circle cx="2.5" cy="2.5" r="2.5" transform="translate(1005.33 378.01)" opacity="0.04"/><circle cx="2.5" cy="2.5" r="2.5" transform="translate(1060.33 378.01)" opacity="0.04"/><circle cx="2.5" cy="2.5" r="2.5" transform="translate(1115.33 378.01)" opacity="0.04"/><circle cx="2.5" cy="2.5" r="2.5" transform="translate(180.33 433.01)" opacity="0.04"/><circle cx="2.5" cy="2.5" r="2.5" transform="translate(235.33 433.01)" opacity="0.04"/><circle cx="2.5" cy="2.5" r="2.5" transform="translate(290.33 433.01)" opacity="0.04"/><circle cx="2.5" cy="2.5" r="2.5" transform="translate(345.33 433.01)" opacity="0.04"/><circle cx="2.5" cy="2.5" r="2.5" transform="translate(400.33 433.01)" opacity="0.04"/><circle cx="2.5" cy="2.5" r="2.5" transform="translate(455.33 433.01)" opacity="0.04"/><circle cx="2.5" cy="2.5" r="2.5" transform="translate(510.33 433.01)" opacity="0.04"/><circle cx="2.5" cy="2.5" r="2.5" transform="translate(565.33 433.01)" opacity="0.04"/><circle cx="2.5" cy="2.5" r="2.5" transform="translate(620.33 433.01)" opacity="0.04"/><circle cx="2.5" cy="2.5" r="2.5" transform="translate(675.33 433.01)" opacity="0.04"/><circle cx="2.5" cy="2.5" r="2.5" transform="translate(730.33 433.01)" opacity="0.04"/><circle cx="2.5" cy="2.5" r="2.5" transform="translate(785.33 433.01)" opacity="0.04"/><circle cx="2.5" cy="2.5" r="2.5" transform="translate(840.33 433.01)" opacity="0.04"/><circle cx="2.5" cy="2.5" r="2.5" transform="translate(895.33 433.01)" opacity="0.04"/><circle cx="2.5" cy="2.5" r="2.5" transform="translate(950.33 433.01)" opacity="0.04"/><circle cx="2.5" cy="2.5" r="2.5" transform="translate(1005.33 433.01)" opacity="0.04"/><circle cx="2.5" cy="2.5" r="2.5" transform="translate(1060.33 433.01)" opacity="0.04"/><circle cx="2.5" cy="2.5" r="2.5" transform="translate(1115.33 433.01)" opacity="0.04"/><circle cx="2.5" cy="2.5" r="2.5" transform="translate(180.33 488.01)" opacity="0.04"/><circle cx="2.5" cy="2.5" r="2.5" transform="translate(235.33 488.01)" opacity="0.04"/><circle cx="2.5" cy="2.5" r="2.5" transform="translate(290.33 488.01)" opacity="0.04"/><circle cx="2.5" cy="2.5" r="2.5" transform="translate(345.33 488.01)" opacity="0.04"/><circle cx="2.5" cy="2.5" r="2.5" transform="translate(400.33 488.01)" opacity="0.04"/><circle cx="2.5" cy="2.5" r="2.5" transform="translate(455.33 488.01)" opacity="0.04"/><circle cx="2.5" cy="2.5" r="2.5" transform="translate(510.33 488.01)" opacity="0.04"/><circle cx="2.5" cy="2.5" r="2.5" transform="translate(565.33 488.01)" opacity="0.04"/><circle cx="2.5" cy="2.5" r="2.5" transform="translate(620.33 488.01)" opacity="0.04"/><circle cx="2.5" cy="2.5" r="2.5" transform="translate(675.33 488.01)" opacity="0.04"/><circle cx="2.5" cy="2.5" r="2.5" transform="translate(730.33 488.01)" opacity="0.04"/><circle cx="2.5" cy="2.5" r="2.5" transform="translate(785.33 488.01)" opacity="0.04"/><circle cx="2.5" cy="2.5" r="2.5" transform="translate(840.33 488.01)" opacity="0.04"/><circle cx="2.5" cy="2.5" r="2.5" transform="translate(895.33 488.01)" opacity="0.04"/><circle cx="2.5" cy="2.5" r="2.5" transform="translate(950.33 488.01)" opacity="0.04"/><circle cx="2.5" cy="2.5" r="2.5" transform="translate(1005.33 488.01)" opacity="0.04"/><circle cx="2.5" cy="2.5" r="2.5" transform="translate(1060.33 488.01)" opacity="0.04"/><circle cx="2.5" cy="2.5" r="2.5" transform="translate(1115.33 488.01)" opacity="0.04"/><circle cx="2.5" cy="2.5" r="2.5" transform="translate(180.33 543.01)" opacity="0.04"/><circle cx="2.5" cy="2.5" r="2.5" transform="translate(235.33 543.01)" opacity="0.04"/><circle cx="2.5" cy="2.5" r="2.5" transform="translate(290.33 543.01)" opacity="0.04"/><circle cx="2.5" cy="2.5" r="2.5" transform="translate(345.33 543.01)" opacity="0.04"/><circle cx="2.5" cy="2.5" r="2.5" transform="translate(400.33 543.01)" opacity="0.04"/><circle cx="2.5" cy="2.5" r="2.5" transform="translate(455.33 543.01)" opacity="0.04"/><circle cx="2.5" cy="2.5" r="2.5" transform="translate(510.33 543.01)" opacity="0.04"/><circle cx="2.5" cy="2.5" r="2.5" transform="translate(565.33 543.01)" opacity="0.04"/><circle cx="2.5" cy="2.5" r="2.5" transform="translate(620.33 543.01)" opacity="0.04"/><circle cx="2.5" cy="2.5" r="2.5" transform="translate(675.33 543.01)" opacity="0.04"/><circle cx="2.5" cy="2.5" r="2.5" transform="translate(730.33 543.01)" opacity="0.04"/><circle cx="2.5" cy="2.5" r="2.5" transform="translate(785.33 543.01)" opacity="0.04"/><circle cx="2.5" cy="2.5" r="2.5" transform="translate(840.33 543.01)" opacity="0.04"/><circle cx="2.5" cy="2.5" r="2.5" transform="translate(895.33 543.01)" opacity="0.04"/><circle cx="2.5" cy="2.5" r="2.5" transform="translate(950.33 543.01)" opacity="0.04"/><circle cx="2.5" cy="2.5" r="2.5" transform="translate(1005.33 543.01)" opacity="0.04"/><circle cx="2.5" cy="2.5" r="2.5" transform="translate(1060.33 543.01)" opacity="0.04"/><circle cx="2.5" cy="2.5" r="2.5" transform="translate(1115.33 543.01)" opacity="0.04"/><circle cx="2.5" cy="2.5" r="2.5" transform="translate(180.33 598.01)" opacity="0.04"/><circle cx="2.5" cy="2.5" r="2.5" transform="translate(235.33 598.01)" opacity="0.04"/><circle cx="2.5" cy="2.5" r="2.5" transform="translate(290.33 598.01)" opacity="0.04"/><circle cx="2.5" cy="2.5" r="2.5" transform="translate(345.33 598.01)" opacity="0.04"/><circle cx="2.5" cy="2.5" r="2.5" transform="translate(400.33 598.01)" opacity="0.04"/><circle cx="2.5" cy="2.5" r="2.5" transform="translate(455.33 598.01)" opacity="0.04"/><circle cx="2.5" cy="2.5" r="2.5" transform="translate(510.33 598.01)" opacity="0.04"/><circle cx="2.5" cy="2.5" r="2.5" transform="translate(565.33 598.01)" opacity="0.04"/><circle cx="2.5" cy="2.5" r="2.5" transform="translate(620.33 598.01)" opacity="0.04"/><circle cx="2.5" cy="2.5" r="2.5" transform="translate(675.33 598.01)" opacity="0.04"/><circle cx="2.5" cy="2.5" r="2.5" transform="translate(730.33 598.01)" opacity="0.04"/><circle cx="2.5" cy="2.5" r="2.5" transform="translate(785.33 598.01)" opacity="0.04"/><circle cx="2.5" cy="2.5" r="2.5" transform="translate(840.33 598.01)" opacity="0.04"/><circle cx="2.5" cy="2.5" r="2.5" transform="translate(895.33 598.01)" opacity="0.04"/><circle cx="2.5" cy="2.5" r="2.5" transform="translate(950.33 598.01)" opacity="0.04"/><circle cx="2.5" cy="2.5" r="2.5" transform="translate(1005.33 598.01)" opacity="0.04"/><circle cx="2.5" cy="2.5" r="2.5" transform="translate(1060.33 598.01)" opacity="0.04"/><circle cx="2.5" cy="2.5" r="2.5" transform="translate(1115.33 598.01)" opacity="0.04"/><circle cx="2.5" cy="2.5" r="2.5" transform="translate(180.33 653.01)" opacity="0.04"/><circle cx="2.5" cy="2.5" r="2.5" transform="translate(235.33 653.01)" opacity="0.04"/><circle cx="2.5" cy="2.5" r="2.5" transform="translate(290.33 653.01)" opacity="0.04"/><circle cx="2.5" cy="2.5" r="2.5" transform="translate(345.33 653.01)" opacity="0.04"/><circle cx="2.5" cy="2.5" r="2.5" transform="translate(400.33 653.01)" opacity="0.04"/><circle cx="2.5" cy="2.5" r="2.5" transform="translate(455.33 653.01)" opacity="0.04"/><circle cx="2.5" cy="2.5" r="2.5" transform="translate(510.33 653.01)" opacity="0.04"/><circle cx="2.5" cy="2.5" r="2.5" transform="translate(565.33 653.01)" opacity="0.04"/><circle cx="2.5" cy="2.5" r="2.5" transform="translate(620.33 653.01)" opacity="0.04"/><circle cx="2.5" cy="2.5" r="2.5" transform="translate(1885.33 43.01)" opacity="0.04"/><circle cx="2.5" cy="2.5" r="2.5" transform="translate(1885.33 98.01)" opacity="0.04"/><circle cx="2.5" cy="2.5" r="2.5" transform="translate(1885.33 153.01)" opacity="0.04"/><circle cx="2.5" cy="2.5" r="2.5" transform="translate(1885.33 208.01)" opacity="0.04"/><circle cx="2.5" cy="2.5" r="2.5" transform="translate(1885.33 263.01)" opacity="0.04"/><circle cx="2.5" cy="2.5" r="2.5" transform="translate(1885.33 318.01)" opacity="0.04"/><circle cx="2.5" cy="2.5" r="2.5" transform="translate(1610.33 48.01)" opacity="0.04"/><circle cx="2.5" cy="2.5" r="2.5" transform="translate(1665.33 48.01)" opacity="0.04"/><circle cx="2.5" cy="2.5" r="2.5" transform="translate(1720.33 48.01)" opacity="0.04"/><circle cx="2.5" cy="2.5" r="2.5" transform="translate(1775.33 48.01)" opacity="0.04"/><circle cx="2.5" cy="2.5" r="2.5" transform="translate(1830.33 48.01)" opacity="0.04"/><circle cx="2.5" cy="2.5" r="2.5" transform="translate(1610.33 103.01)" opacity="0.04"/><circle cx="2.5" cy="2.5" r="2.5" transform="translate(1665.33 103.01)" opacity="0.04"/><circle cx="2.5" cy="2.5" r="2.5" transform="translate(1720.33 103.01)" opacity="0.04"/><circle cx="2.5" cy="2.5" r="2.5" transform="translate(1775.33 103.01)" opacity="0.04"/><circle cx="2.5" cy="2.5" r="2.5" transform="translate(1830.33 103.01)" opacity="0.04"/><circle cx="2.5" cy="2.5" r="2.5" transform="translate(1610.33 158.01)" opacity="0.04"/><circle cx="2.5" cy="2.5" r="2.5" transform="translate(1665.33 158.01)" opacity="0.04"/><circle cx="2.5" cy="2.5" r="2.5" transform="translate(1720.33 158.01)" opacity="0.04"/><circle cx="2.5" cy="2.5" r="2.5" transform="translate(1775.33 158.01)" opacity="0.04"/><circle cx="2.5" cy="2.5" r="2.5" transform="translate(1830.33 158.01)" opacity="0.04"/><circle cx="2.5" cy="2.5" r="2.5" transform="translate(1610.33 213.01)" opacity="0.04"/><circle cx="2.5" cy="2.5" r="2.5" transform="translate(1665.33 213.01)" opacity="0.04"/><circle cx="2.5" cy="2.5" r="2.5" transform="translate(1720.33 213.01)" opacity="0.04"/><circle cx="2.5" cy="2.5" r="2.5" transform="translate(1775.33 213.01)" opacity="0.04"/><circle cx="2.5" cy="2.5" r="2.5" transform="translate(1830.33 213.01)" opacity="0.04"/><circle cx="2.5" cy="2.5" r="2.5" transform="translate(1610.33 268.01)" opacity="0.04"/><circle cx="2.5" cy="2.5" r="2.5" transform="translate(1665.33 268.01)" opacity="0.04"/><circle cx="2.5" cy="2.5" r="2.5" transform="translate(1720.33 268.01)" opacity="0.04"/><circle cx="2.5" cy="2.5" r="2.5" transform="translate(1775.33 268.01)" opacity="0.04"/><circle cx="2.5" cy="2.5" r="2.5" transform="translate(1830.33 268.01)" opacity="0.04"/><circle cx="2.5" cy="2.5" r="2.5" transform="translate(1610.33 323.01)" opacity="0.04"/><circle cx="2.5" cy="2.5" r="2.5" transform="translate(1665.33 323.01)" opacity="0.04"/><circle cx="2.5" cy="2.5" r="2.5" transform="translate(1720.33 323.01)" opacity="0.04"/><circle cx="2.5" cy="2.5" r="2.5" transform="translate(1775.33 323.01)" opacity="0.04"/><circle cx="2.5" cy="2.5" r="2.5" transform="translate(1830.33 323.01)" opacity="0.04"/><circle cx="2.5" cy="2.5" r="2.5" transform="translate(1830.33 378.01)" opacity="0.04"/><circle cx="2.5" cy="2.5" r="2.5" transform="translate(1445.33 48.01)" opacity="0.04"/><circle cx="2.5" cy="2.5" r="2.5" transform="translate(1500.33 48.01)" opacity="0.04"/><circle cx="2.5" cy="2.5" r="2.5" transform="translate(1555.33 48.01)" opacity="0.04"/><circle cx="2.5" cy="2.5" r="2.5" transform="translate(1445.33 103.01)" opacity="0.04"/><circle cx="2.5" cy="2.5" r="2.5" transform="translate(1500.33 103.01)" opacity="0.04"/><circle cx="2.5" cy="2.5" r="2.5" transform="translate(1555.33 103.01)" opacity="0.04"/><circle cx="2.5" cy="2.5" r="2.5" transform="translate(1445.33 158.01)" opacity="0.04"/><circle cx="2.5" cy="2.5" r="2.5" transform="translate(1500.33 158.01)" opacity="0.04"/><circle cx="2.5" cy="2.5" r="2.5" transform="translate(1555.33 158.01)" opacity="0.04"/><circle cx="2.5" cy="2.5" r="2.5" transform="translate(1445.33 213.01)" opacity="0.04"/><circle cx="2.5" cy="2.5" r="2.5" transform="translate(1500.33 213.01)" opacity="0.04"/><circle cx="2.5" cy="2.5" r="2.5" transform="translate(1555.33 213.01)" opacity="0.04"/><circle cx="2.5" cy="2.5" r="2.5" transform="translate(1445.33 268.01)" opacity="0.04"/><circle cx="2.5" cy="2.5" r="2.5" transform="translate(1500.33 268.01)" opacity="0.04"/><circle cx="2.5" cy="2.5" r="2.5" transform="translate(1555.33 268.01)" opacity="0.04"/><circle cx="2.5" cy="2.5" r="2.5" transform="translate(1445.33 323.01)" opacity="0.04"/><circle cx="2.5" cy="2.5" r="2.5" transform="translate(1500.33 323.01)" opacity="0.04"/><circle cx="2.5" cy="2.5" r="2.5" transform="translate(1555.33 323.01)" opacity="0.04"/></g></svg>